<svg id="Layer_1" data-name="Layer 1" xmlns="http://www.w3.org/2000/svg" xmlns:xlink="http://www.w3.org/1999/xlink" viewBox="0 0 512 333.59"><defs><style>.cls-1{fill:#a10400;}.cls-2{font-size:104.98px;stroke:#d4b80f;stroke-width:2.33px;font-family:MarkerFelt-Wide, Marker Felt;}.cls-2,.cls-8{fill:#fcd900;stroke-miterlimit:10;}.cls-3{letter-spacing:0.03em;}.cls-4{letter-spacing:0.06em;}.cls-5{letter-spacing:0em;}.cls-6{fill:url(#radial-gradient);}.cls-7{fill:url(#radial-gradient-2);}.cls-8{stroke:blue;stroke-width:3.5px;}.cls-9{fill:url(#radial-gradient-3);}.cls-10{fill:url(#radial-gradient-4);}.cls-11{fill:url(#radial-gradient-5);}.cls-12{fill:url(#radial-gradient-6);}.cls-13{fill:url(#radial-gradient-7);}.cls-14{fill:url(#radial-gradient-8);}.cls-15{fill:#3690ff;opacity:0.53;}</style><radialGradient id="radial-gradient" cx="103.74" cy="21.78" r="61.19" gradientTransform="translate(39.48 205.15) rotate(-90)" gradientUnits="userSpaceOnUse"><stop offset="0" stop-color="#fff"/><stop offset="0.33" stop-color="#b3afd7"/><stop offset="1" stop-color="#0b0080"/></radialGradient><radialGradient id="radial-gradient-2" cx="103.74" cy="21.78" r="187.09" gradientTransform="translate(-42.48 62.22) scale(1 1.8)" xlink:href="#radial-gradient"/><radialGradient id="radial-gradient-3" cx="235.4" cy="6.23" r="61.19" gradientTransform="translate(184.86 310.64) rotate(-90)" xlink:href="#radial-gradient"/><radialGradient id="radial-gradient-4" cx="235.41" cy="6.23" r="187.09" gradientTransform="translate(-44.32 64.03) scale(1 1.8)" xlink:href="#radial-gradient"/><radialGradient id="radial-gradient-5" cx="295.12" cy="7.39" r="61.19" gradientTransform="translate(313.52 370.36) rotate(-90)" xlink:href="#radial-gradient"/><radialGradient id="radial-gradient-6" cx="295.12" cy="7.39" r="187.09" gradientTransform="translate(25.79 61.93) scale(1 1.8)" xlink:href="#radial-gradient"/><radialGradient id="radial-gradient-7" cx="427.33" cy="28.93" r="61.19" gradientTransform="translate(421.81 528.74) rotate(-90)" xlink:href="#radial-gradient"/><radialGradient id="radial-gradient-8" cx="427.33" cy="28.93" r="187.09" gradientTransform="translate(23.41 49.34) scale(1 1.8)" xlink:href="#radial-gradient"/></defs><ellipse class="cls-1" cx="256" cy="213.05" rx="129.01" ry="113.95"/><text class="cls-2" transform="translate(170.62 273.44) rotate(-7.5)"><tspan class="cls-3">F</tspan><tspan x="53.54" y="0">L</tspan><tspan class="cls-4" x="103.93" y="0">I</tspan><tspan class="cls-5" x="135.21" y="0">P</tspan></text><rect class="cls-6" x="-10.48" y="53" width="143.47" height="96.82" rx="18.1" transform="translate(143.36 15.99) rotate(75)"/><rect class="cls-7" x="17.52" y="34.34" width="87.48" height="134.14" rx="13.44" transform="translate(-24.16 19.31) rotate(-15)"/><path class="cls-8" d="M76.88,65.57q-1.32,11.93-.79,35.34.47,21.18,1.26,23.83a30.35,30.35,0,0,0,1.16,3.69,6.66,6.66,0,0,1,.34,3.56,3.23,3.23,0,0,1-1.6,2.78q-2.22,1.11-9.93.75t-9.22-1.79a5,5,0,0,1-1.13-2,11.76,11.76,0,0,0-.83-2.13Q39,102.84,31,80.14a7.71,7.71,0,0,0-.86-1.6,5.11,5.11,0,0,1-.62-1.66c-.23-2,.24-3.34,1.42-4.12q.88-.58,7.23-.28,6.67.28,7.7,1.5a8.74,8.74,0,0,1,.92,3.4A5.67,5.67,0,0,1,46.56,79a2.87,2.87,0,0,0,0,1.69q3.49,8.19,6.29,14.4,6.77,14.88,9,17.41a198.15,198.15,0,0,1-.3-20.62,188.55,188.55,0,0,0-.4-20.93,24.89,24.89,0,0,1-.38-4.34,4.55,4.55,0,0,1,2-3.23q1.19-.75,6.45-.25C73.08,63.52,75.62,64.34,76.88,65.57Z"/><rect class="cls-9" x="119.35" y="26.83" width="143.47" height="96.82" rx="18.1" transform="translate(240.74 -124.04) rotate(82.5)"/><rect class="cls-10" x="147.34" y="8.16" width="87.48" height="134.14" rx="13.44" transform="matrix(0.99, -0.13, 0.13, 0.99, -8.19, 25.59)"/><path class="cls-8" d="M200.68,110.13a10.73,10.73,0,0,1-4,.05c-1.5-.22-3-.47-4.41-.73-1.73-.22-4.44-.68-8.15-1.38q-7-2-11.59-10.17-4-7.17-5.4-17.92a83.8,83.8,0,0,1,.31-20.8q2-16.18,8.51-17a6.28,6.28,0,0,1,1.66.08,15.69,15.69,0,0,0,1.68.16q5.92-2.57,7.68-2.79a15.45,15.45,0,0,1,1.67-.14q10.16-.06,17.38,10.42,6.51,9.48,8.36,23.55,1.75,13.32-1.65,23.51Q209.12,108,200.68,110.13Zm-9.54-60.84c-1.26-.17-2.25,1.62-3,5.39s-1.69,5.73-2.91,5.89a2.82,2.82,0,0,1-1.27-.3,4,4,0,0,0-1.36-.37q-2,6.62-.49,18.19a56,56,0,0,0,4,15.32q3.12,7,7,7.2,4.6.24,6-10.19a80.93,80.93,0,0,0-.34-21.3,65.63,65.63,0,0,0-3.07-13.66Q193.64,49.64,191.14,49.29Z"/><rect class="cls-11" x="249.18" y="26.83" width="143.47" height="96.82" rx="18.1" transform="translate(437.39 -233.11) rotate(97.5)"/><rect class="cls-12" x="277.17" y="8.16" width="87.48" height="134.14" rx="13.44" transform="translate(12.57 -41.24) rotate(7.5)"/><path class="cls-8" d="M340.58,94.43a5.25,5.25,0,0,1-2,3.12,40.18,40.18,0,0,1-8.78,9.44q-6.15,4.86-9.48,4.42a4.59,4.59,0,0,1-.9-.2q-3.51-1.65-7.86-4-7.73-4.39-10.82-14.38a48.26,48.26,0,0,1-1.23-20.24q1.81-13.74,8.44-23.54,7.05-10.42,15.51-9.73,3.27.26,9.1,4.58T339.91,52q1.54,3.72.75,15.47a13.44,13.44,0,0,1-1.33,5q-1.41,3-2.95,2.49a46.54,46.54,0,0,1-7.09-2.79q-5.1-2.46-5.36-3.67a2,2,0,0,1-.07-.78,3.89,3.89,0,0,1,.95-1.78,3.83,3.83,0,0,0,1-1.78A52.28,52.28,0,0,0,327,57.75q.57-4.34-.21-6.13-5.47,3-9.19,11.24A57.68,57.68,0,0,0,313.31,79a58,58,0,0,0-.42,12.78q.53,5.7,2.12,7.1.76.6,5.06-2.76a25.7,25.7,0,0,0,5.69-5.57,25.65,25.65,0,0,0,1.1-2.56c.47-1,1-1.51,1.57-1.66q1.49-.32,7,3.33T340.58,94.43Z"/><rect class="cls-13" x="379" y="53" width="143.47" height="96.82" rx="18.1" transform="translate(665.36 -307.72) rotate(105)"/><rect class="cls-14" x="407" y="34.34" width="87.48" height="134.14" rx="13.44" transform="translate(41.61 -113.2) rotate(15)"/><path class="cls-8" d="M468.8,136.9c-.19.47-.61,1.61-1.26,3.4a4.1,4.1,0,0,1-1.24,2,3,3,0,0,1-1.44-.13,21.9,21.9,0,0,1-6.29-3.16c-2.63-1.64-4.3-3.18-5-4.65q-.45-.9,0-5.21a67.09,67.09,0,0,0,.39-9.55,62.34,62.34,0,0,0-9.6-.18c-4.28.15-7.12.48-8.52,1q-2.16,3.16-5.55,7.73-.55,1.08-1.11,2a2.88,2.88,0,0,1-1.86,1.28,1.32,1.32,0,0,1-.78,0c-1.29-.35-3.29-1.61-6-3.78s-4-3.48-4-4c0-.81,1-2.54,3-5.18q4.33-5.79,5.13-7.15a5.1,5.1,0,0,1-.79-3.86,5.52,5.52,0,0,1,.32-.87q.42-.93,5.88-2.16l20.06-33a14.15,14.15,0,0,0,1-3.54c.29-1.49.69-2.37,1.23-2.63a3.08,3.08,0,0,1,2.05.12,45.53,45.53,0,0,1,10.35,4.86q6.54,3.82,7.51,5.74-1.93,9.14-3.59,28Q466.84,127.33,468.8,136.9Zm-14.57-30.34q.31-5.39.51-7.08a107.25,107.25,0,0,1,1.8-11.6q-2.69,3.54-6.77,10a63.53,63.53,0,0,0-5,8.58A78.32,78.32,0,0,1,454.23,106.56Z"/><path class="cls-15" d="M72.81,238.09s.73-4-.79-.32a19,19,0,0,0-1.2,5.15,15.15,15.15,0,0,1,.82-2.75A5.11,5.11,0,0,1,72.81,238.09Z"/><path class="cls-15" d="M209.45,311.11c-37.79-3.5-66.81-11.59-85.51-19.16a153.36,153.36,0,0,1-20.67-10c-4.44-2.64-6.6-4.17-6.6-4.17A75.12,75.12,0,0,1,79,263.86a32.25,32.25,0,0,1-7.42-12.71,24.58,24.58,0,0,1-.79-8.23c-.12.57-.23,1.16-.32,1.82a24.87,24.87,0,0,0,2.42,13.43,44.52,44.52,0,0,0,8,11.58,40.48,40.48,0,0,0,3.27,3.33l1.29,1.21a58.88,58.88,0,0,1-10-11.16A33.26,33.26,0,0,1,69.54,252,25.87,25.87,0,0,1,69,239.5a26.61,26.61,0,0,0,.45,15.83,25.14,25.14,0,0,1-2.33-10.65,27.64,27.64,0,0,1,4.16-14.05,45.91,45.91,0,0,1,8.22-9.87l3.07-2.61,1.19-.89a39.22,39.22,0,0,0-11.36,9.89A32.17,32.17,0,0,0,66.57,238a28.34,28.34,0,0,0-.2,15,40,40,0,0,0,7.88,15,70.5,70.5,0,0,0,13,12.3c9.74,7.32,21,13.1,32.29,17.85,22.71,9.51,46,14.88,63.23,18.16,8.66,1.61,15.86,2.69,20.89,3.39l7.88,1c-2.23.3-7.24.27-14.27-.3-4.17-.58-10.23-1.47-17.63-2.83A327.4,327.4,0,0,1,121.86,302a173.22,173.22,0,0,1-31.27-15.32A94.53,94.53,0,0,1,76.66,276a54.74,54.74,0,0,1-11-13.67,36,36,0,0,1-4.64-16.55A33,33,0,0,1,64.22,231a41.44,41.44,0,0,1,6.57-10A51.91,51.91,0,0,1,77,214.82l0,0a52.12,52.12,0,0,0-6.21,6.11,42.06,42.06,0,0,0-6.57,10A33.22,33.22,0,0,0,61,245.81a36,36,0,0,0,4.65,16.58,54.87,54.87,0,0,0,11,13.69,94.52,94.52,0,0,0,13.94,10.69,173.66,173.66,0,0,0,31.28,15.32,327.62,327.62,0,0,0,57.81,15.56c6.66,1.22,12.23,2.07,16.31,2.64-7-.61-15.86-1.73-25.9-3.55-21-3.88-47.42-10.52-71.67-23.25-12-6.45-23.8-14.38-32.13-26.17A40.16,40.16,0,0,1,58.89,247a35.82,35.82,0,0,1,4.19-19.1,49.86,49.86,0,0,1,9.07-12.12c1.48-1.61,3-2.82,4.38-4.09l3.88-3.09c2.4-1.72,4.29-3.06,5.61-3.86l2-1.28a62.43,62.43,0,0,0-22.85,18.37,41.15,41.15,0,0,0-7.79,17.66,38.63,38.63,0,0,0,3.48,22.73,59.35,59.35,0,0,0,13.71,18c10.9,9.94,23.65,16.94,36.44,22.67,25.68,11.3,51.91,17.26,71.49,20.82,9.8,1.71,18,2.92,23.67,3.59s9,1,9,1c-3.47.16-19.7-1.11-41.91-5.25a343.2,343.2,0,0,1-36.83-9.05c-6.58-2-13.3-4.32-20-7a184.59,184.59,0,0,1-20.09-9.29,126,126,0,0,1-19.2-12.52A70.12,70.12,0,0,1,60.8,267.2a47.67,47.67,0,0,1-5.21-12,41.48,41.48,0,0,1-1.17-13.25,42.74,42.74,0,0,1,8-21.4c7.74-10.7,15.86-15.87,21.26-19.51s8.73-5.1,8.73-5.1a60.4,60.4,0,0,0-8.18,4.17,81.55,81.55,0,0,0-13.74,10.07,62.05,62.05,0,0,0-8,8.79,46.89,46.89,0,0,0-7,13.15,40.71,40.71,0,0,0-1.86,17.74,46,46,0,0,0,6.2,17.53A62.4,62.4,0,0,0,65,274.71a81,81,0,0,0,6,6.3c2.06,2.05,4.26,3.75,6.46,5.59,2.25,1.63,4.51,3.43,6.86,4.89a163.93,163.93,0,0,0,29.91,15.35c21,8.39,43.45,14,65.88,17.85,44.9,7.7,89.39,7.95,122.47,5.59,16.55-1.18,30.26-3,39.82-4.5s15-2.63,15-2.63c23.94-4.79,44.34-12.4,58.36-19.62a147.67,147.67,0,0,0,16.11-9.61c1.83-1.23,3.21-2.36,4.15-3l1.41-1.09A99.48,99.48,0,0,0,451,278.05a61.39,61.39,0,0,0,10-14.26,40.52,40.52,0,0,0,4.29-16.34,37.4,37.4,0,0,0-2.19-14.78,48.17,48.17,0,0,0-11.8-17.75,72,72,0,0,0-10.53-8.51,85.27,85.27,0,0,0-11.59-6.52c-1-.45-1.59-.71-2-.86-6.59-3.35-13.06-5.88-17-6.54-10.84-1.85-20.79,3.5-22.22,11.95s6.19,16.78,17,18.62c2.62.44,6.51.92,10.92,1.26-.14.62,0,.89.25.92a3.66,3.66,0,0,0,1.75-.77l.81.05c5.92,2.91,11.3,6.31,15,10,3.87,3.84,5.88,7.28,6.12,11.09s-1.5,8.87-5.3,13.67a66.38,66.38,0,0,1-14.36,13.22c-11.21,7.85-24,13.85-36.78,18.7A298.16,298.16,0,0,1,345,302.66a412.83,412.83,0,0,1-72.83,9.79A446.18,446.18,0,0,1,209.45,311.11Z"/><path class="cls-15" d="M467.77,240.74a42.38,42.38,0,0,0-6-16.85,54.28,54.28,0,0,0-9-11.15,73.53,73.53,0,0,0-8.83-7.29,107.18,107.18,0,0,0-13.36-8l-5-2.41,0,.06s1.6.8,4.58,2.32l.07,0a113.89,113.89,0,0,1,12.61,7.77c5.58,4.12,12,9.27,17.66,18.17a42.79,42.79,0,0,1,6.23,17.08,42.23,42.23,0,0,1-2.82,20.68,56.28,56.28,0,0,1-11.08,17.05A96.77,96.77,0,0,1,438.13,291a171.6,171.6,0,0,1-34,18.19c-22.11,9-47.75,15.87-76.2,20.38l-3.15.41c-1.69.2-4.12.48-7.19.8-5.76.61-15,1.46-26.35,2.07a550.6,550.6,0,0,1-81.58-1.9c-15.54-1.58-30.64-3.85-44.89-6.74a334.28,334.28,0,0,1-40.59-10.91A205.8,205.8,0,0,1,93,299.8a118.25,118.25,0,0,1-16.84-11l-2.7-2.17A80.34,80.34,0,0,1,66.27,280a65,65,0,0,1-9.68-12.88A46.6,46.6,0,0,1,50.65,245a45.85,45.85,0,0,1,7.22-24.3A66,66,0,0,1,73,204.34c11.45-9,23.06-14,31.89-17.33l0-.06C96.05,190.3,84.44,195.3,73,204.29A65.84,65.84,0,0,0,57.81,220.7,45.94,45.94,0,0,0,50.58,245a46.57,46.57,0,0,0,6,22.1A65.24,65.24,0,0,0,66.22,280a81.58,81.58,0,0,0,7.23,6.64c1.72,1.4,2.69,2.17,2.7,2.18a119.33,119.33,0,0,0,16.86,11,206.49,206.49,0,0,0,31.14,13.47,335,335,0,0,0,40.6,10.91c14,2.84,28.83,5.07,44.07,6.65v0c4.71.7,16.85,2,32.44,2.62,6.7.25,13.54.38,20.35.38,11.4,0,22.7-.36,33-1.06,11.24-.68,21.53-1.75,30.13-2.84l2.72-.33.47-.08c6.95-.93,12.61-1.84,16.52-2.52,13.13-2.29,21.83-4.38,21.92-4.4a233.66,233.66,0,0,0,49.77-17A143,143,0,0,0,443.33,289a84.46,84.46,0,0,0,12.46-12.12,56.92,56.92,0,0,0,9.63-16.31A42.39,42.39,0,0,0,467.77,240.74Zm-173.12,92a522.92,522.92,0,0,1-53.39.68c-14.17-.54-25.47-1.69-30.95-2.41,19.47,1.94,37.77,2.54,52.79,2.54,11.69,0,21.4-.36,28.13-.71,9.78-.53,18-1.23,23.76-1.8C308.73,331.74,301.89,332.34,294.65,332.78Zm170.71-72.2a56.79,56.79,0,0,1-9.62,16.29A84.87,84.87,0,0,1,443.28,289a143.25,143.25,0,0,1-27.13,16.68,234.12,234.12,0,0,1-49.76,17c-.08,0-8.78,2.1-21.92,4.39-3.5.61-8.44,1.41-14.45,2.24,27.61-4.52,52.56-11.24,74.13-20a170.67,170.67,0,0,0,34-18.2,96.81,96.81,0,0,0,14.66-12.77,56.21,56.21,0,0,0,11.09-17.07,42.28,42.28,0,0,0,2.83-20.72,42.79,42.79,0,0,0-6.24-17.11c-5.66-8.91-12.09-14.06-17.68-18.18a112.69,112.69,0,0,0-12.62-7.78l-.07,0-1.06-.53,1.43.69a104.56,104.56,0,0,1,13.36,8,74.22,74.22,0,0,1,8.82,7.27,54.38,54.38,0,0,1,9,11.14,41.54,41.54,0,0,1,3.65,36.66Z"/><path class="cls-15" d="M82.05,260.68a26.42,26.42,0,0,1-4.93-8.86l-.06-.18-.07,0,.06.18a26.62,26.62,0,0,0,5,8.87c3.75,4.73,9.73,9.86,16.85,14.46a165.47,165.47,0,0,0,27.57,13.65,285.77,285.77,0,0,0,33.07,10.44c23.54,6,47.19,9.08,62.89,10.61,10,.92,17.27,1.36,20.71,1.54l7.82.38v-.07l-7.83-.38c-3.43-.18-10.7-.62-20.71-1.54-15.69-1.53-39.34-4.6-62.87-10.61a283.87,283.87,0,0,1-33.07-10.43,165.22,165.22,0,0,1-27.55-13.65C91.78,270.53,85.8,265.4,82.05,260.68Z"/></svg>