<svg xmlns="http://www.w3.org/2000/svg" xmlns:xlink="http://www.w3.org/1999/xlink" viewBox="0 0 41.25 36.29"><defs><style>.cls-1{fill:url(#radial-gradient);}.cls-2{fill:url(#radial-gradient-2);}.cls-3{fill:#fcd900;stroke:blue;stroke-miterlimit:10;stroke-width:0.82px;}.cls-4{fill:#3690ff;opacity:0.53;}</style><radialGradient id="radial-gradient" cx="-110.92" cy="-14.07" r="14.42" gradientTransform="matrix(0, -0.99, 0.99, 0, 34.57, -91.75)" gradientUnits="userSpaceOnUse"><stop offset="0" stop-color="#fff"/><stop offset="0.33" stop-color="#b3afd7"/><stop offset="1" stop-color="#0b0080"/></radialGradient><radialGradient id="radial-gradient-2" cx="-110.92" cy="-14.07" r="44.07" gradientTransform="translate(130.52 43.24) scale(0.99 1.78)" xlink:href="#radial-gradient"/></defs><g id="Layer_2" data-name="Layer 2"><g id="Layer_1-2" data-name="Layer 1"><rect class="cls-1" x="3.89" y="6.85" width="33.48" height="22.59" rx="4.22" transform="translate(32.82 -6.47) rotate(75)"/><rect class="cls-2" x="10.42" y="2.49" width="20.42" height="31.31" rx="3.14" transform="translate(-3.99 5.96) rotate(-15)"/><path class="cls-3" d="M24.27,9.78A69.42,69.42,0,0,0,24.09,18a44,44,0,0,0,.29,5.56,8.81,8.81,0,0,0,.27.86,1.5,1.5,0,0,1,.08.83.75.75,0,0,1-.37.65,5.74,5.74,0,0,1-2.32.18,4.31,4.31,0,0,1-2.15-.42,1.07,1.07,0,0,1-.26-.46,2.42,2.42,0,0,0-.2-.49,58.08,58.08,0,0,1-5.87-11.56,2.48,2.48,0,0,0-.2-.37,1.2,1.2,0,0,1-.15-.39.94.94,0,0,1,.33-1,5,5,0,0,1,1.69-.07,3.42,3.42,0,0,1,1.8.35,2.25,2.25,0,0,1,.21.8,1.49,1.49,0,0,1,0,.37.64.64,0,0,0,0,.39q.81,1.92,1.47,3.36a23.42,23.42,0,0,0,2.1,4.06,47.32,47.32,0,0,1-.07-4.81A45.5,45.5,0,0,0,20.61,11a6,6,0,0,1-.09-1A1.05,1.05,0,0,1,21,9.26a3.21,3.21,0,0,1,1.5-.06A3.17,3.17,0,0,1,24.27,9.78Z"/><path class="cls-4" d="M2.2,20.5s.07-.39-.08,0A1.64,1.64,0,0,0,2,21a1.25,1.25,0,0,1,.08-.27A.45.45,0,0,1,2.2,20.5Z"/><path class="cls-4" d="M15.7,27.72a30.51,30.51,0,0,1-8.45-1.9,13,13,0,0,1-2-1c-.44-.26-.66-.41-.66-.41a7.75,7.75,0,0,1-1.74-1.37,3.17,3.17,0,0,1-.73-1.26A2.26,2.26,0,0,1,2,21q0,.07,0,.18a2.38,2.38,0,0,0,.24,1.33A4.47,4.47,0,0,0,3,23.63a3.47,3.47,0,0,0,.32.33l.13.12a6,6,0,0,1-1-1.1,3.5,3.5,0,0,1-.59-1.11,2.56,2.56,0,0,1-.05-1.23,2.6,2.6,0,0,0,0,1.56,2.48,2.48,0,0,1-.23-1.05A2.73,2.73,0,0,1,2,19.76a4.65,4.65,0,0,1,.81-1l.31-.26.12-.09a3.83,3.83,0,0,0-1.13,1,3.19,3.19,0,0,0-.57,1.07,2.78,2.78,0,0,0,0,1.49,4,4,0,0,0,.78,1.48,7,7,0,0,0,1.28,1.21,15,15,0,0,0,3.19,1.76,31.67,31.67,0,0,0,6.25,1.8c.86.16,1.57.27,2.07.33l.78.11a8.89,8.89,0,0,1-1.41,0c-.42-.06-1-.15-1.75-.28A33.17,33.17,0,0,1,7,26.82,17.79,17.79,0,0,1,4,25.31a9.45,9.45,0,0,1-1.37-1.06A5.67,5.67,0,0,1,1.49,22.9,3.55,3.55,0,0,1,1,21.26a3.11,3.11,0,0,1,.31-1.46,4,4,0,0,1,.65-1,5,5,0,0,1,.61-.61h0a5,5,0,0,0-.61.6,4,4,0,0,0-.65,1A3.32,3.32,0,0,0,1,21.26a3.57,3.57,0,0,0,.46,1.64,5.25,5.25,0,0,0,1.08,1.35A8.87,8.87,0,0,0,4,25.31,17.11,17.11,0,0,0,7,26.83a33.18,33.18,0,0,0,5.71,1.53c.66.12,1.21.21,1.62.26-.7-.06-1.57-.17-2.56-.35A25.42,25.42,0,0,1,4.72,26a9,9,0,0,1-3.17-2.59,3.93,3.93,0,0,1-.73-2,3.44,3.44,0,0,1,.42-1.89,4.74,4.74,0,0,1,.89-1.2c.15-.16.3-.28.43-.4L3,17.59c.23-.17.42-.3.55-.38l.2-.13a6,6,0,0,0-1.28.81,5.59,5.59,0,0,0-1,1,4.24,4.24,0,0,0-.77,1.74A3.85,3.85,0,0,0,1,22.89a6,6,0,0,0,1.35,1.78A13.6,13.6,0,0,0,6,26.91,32.63,32.63,0,0,0,13,29c1,.16,1.77.28,2.34.35l.88.1a26.23,26.23,0,0,1-4.14-.52A31.84,31.84,0,0,1,8.48,28q-1-.3-2-.69a18.53,18.53,0,0,1-2-.92,11.46,11.46,0,0,1-1.9-1.24A6.92,6.92,0,0,1,1,23.38a5.3,5.3,0,0,1-.52-1.19,4.08,4.08,0,0,1,.68-3.42,7.26,7.26,0,0,1,2.1-1.93,10,10,0,0,1,.86-.51,5.85,5.85,0,0,0-.81.42,7.63,7.63,0,0,0-1.35,1,6.93,6.93,0,0,0-.8.87,4.54,4.54,0,0,0-.68,1.3A4,4,0,0,0,.3,21.66a4.49,4.49,0,0,0,.62,1.73,4.76,4.76,0,0,0,.51.73,7,7,0,0,0,.59.62,8,8,0,0,0,.63.55c.23.17.45.34.68.49a16.18,16.18,0,0,0,3,1.51,32.12,32.12,0,0,0,6.51,1.77,52.12,52.12,0,0,0,12.1.55c1.64-.12,3-.29,3.93-.44s1.49-.26,1.49-.26A23,23,0,0,0,36.08,27,14,14,0,0,0,37.67,26a4.48,4.48,0,0,0,.41-.3l.14-.11a9.56,9.56,0,0,0,1.35-1.16,6.52,6.52,0,0,0,1-1.41A4,4,0,0,0,40.77,20a4.83,4.83,0,0,0-1.17-1.76,8.31,8.31,0,0,0-1-.84,7.37,7.37,0,0,0-1.15-.64l-.19-.09A7.16,7.16,0,0,0,35.54,16a1.8,1.8,0,0,0-2.2,1.19C33.2,18,34,18.83,35,19c.25,0,.64.09,1.07.12q0,.09,0,.09a.28.28,0,0,0,.17-.07h.08a5.68,5.68,0,0,1,1.49,1,1.68,1.68,0,0,1,.6,1.09A2,2,0,0,1,38,22.59a6.64,6.64,0,0,1-1.42,1.31,16.85,16.85,0,0,1-3.64,1.85,28.8,28.8,0,0,1-3.8,1.13,41,41,0,0,1-7.2,1A45.89,45.89,0,0,1,15.7,27.72Z"/><path class="cls-4" d="M41.22,20.76a4,4,0,0,0-.59-1.66,5.12,5.12,0,0,0-.89-1.1,6.65,6.65,0,0,0-.87-.72,11.32,11.32,0,0,0-1.32-.8l-.5-.23h0l.45.23h0a13.24,13.24,0,0,1,1.25.77,6.53,6.53,0,0,1,1.74,1.8,4.28,4.28,0,0,1,.62,1.69,4.21,4.21,0,0,1-.28,2,5.72,5.72,0,0,1-1.1,1.68,9.65,9.65,0,0,1-1.44,1.27,17.56,17.56,0,0,1-3.36,1.79,34.57,34.57,0,0,1-7.54,2l-.31,0-.71.08c-.57.06-1.48.14-2.6.2a54.58,54.58,0,0,1-8.06-.19c-1.54-.15-3-.38-4.44-.66a33.91,33.91,0,0,1-4-1.08A21.23,21.23,0,0,1,4.2,26.6a11.43,11.43,0,0,1-1.67-1.09l-.27-.21a7.83,7.83,0,0,1-.71-.66,6.57,6.57,0,0,1-1-1.27A4.62,4.62,0,0,1,0,21.19a4.55,4.55,0,0,1,.71-2.4,6.47,6.47,0,0,1,1.5-1.62,11.65,11.65,0,0,1,3.15-1.72h0a11.62,11.62,0,0,0-3.16,1.71,6.85,6.85,0,0,0-1.5,1.62A4.61,4.61,0,0,0,0,21.19a4.5,4.5,0,0,0,.59,2.18,6.3,6.3,0,0,0,1,1.28,9.23,9.23,0,0,0,.71.65l.27.22a12.85,12.85,0,0,0,1.66,1.09,21.38,21.38,0,0,0,3.08,1.33,32.14,32.14,0,0,0,4,1.07,43.81,43.81,0,0,0,4.36.66h0c.46.07,1.66.2,3.2.26.66,0,1.34,0,2,0,1.13,0,2.25,0,3.27-.1s2.13-.18,3-.29l.26,0h.05c.69-.09,1.25-.18,1.63-.25,1.3-.22,2.16-.43,2.17-.43a23,23,0,0,0,4.92-1.68,14,14,0,0,0,2.68-1.65A8,8,0,0,0,40,24.34a5.62,5.62,0,0,0,1-1.61A4.22,4.22,0,0,0,41.22,20.76Zm-17.1,9.1a51.2,51.2,0,0,1-5.28.06c-1.4-.05-2.51-.16-3.06-.23,1.93.19,3.74.25,5.22.25,1.16,0,2.11,0,2.78-.07,1-.05,1.78-.12,2.35-.18C25.51,29.76,24.83,29.81,24.12,29.86ZM41,22.72a5.72,5.72,0,0,1-1,1.61,8.61,8.61,0,0,1-1.24,1.2,14.38,14.38,0,0,1-2.68,1.65,22.87,22.87,0,0,1-4.91,1.67s-.87.21-2.17.44c-.35.06-.83.14-1.43.22a34.23,34.23,0,0,0,7.33-2,16.48,16.48,0,0,0,3.36-1.8,9.72,9.72,0,0,0,1.45-1.26,5.41,5.41,0,0,0,1.09-1.69,4.12,4.12,0,0,0,.28-2.05A4.22,4.22,0,0,0,40.51,19a6.35,6.35,0,0,0-1.75-1.79,10,10,0,0,0-1.25-.77h0l-.11,0,.14.07a9.64,9.64,0,0,1,1.32.79,6.79,6.79,0,0,1,.87.72,5.49,5.49,0,0,1,.9,1.1,4.31,4.31,0,0,1,.59,1.66A4.17,4.17,0,0,1,41,22.72Z"/><path class="cls-4" d="M3.11,22.73a2.77,2.77,0,0,1-.49-.87v0h0v0a2.49,2.49,0,0,0,.48.88,7.73,7.73,0,0,0,1.67,1.43,16.81,16.81,0,0,0,2.72,1.35,30.75,30.75,0,0,0,3.27,1,42.82,42.82,0,0,0,6.22,1c1,.1,1.7.14,2,.16l.78,0h0l-.78,0c-.34,0-1.05-.06-2-.15a43.25,43.25,0,0,1-6.22-1.05,29.85,29.85,0,0,1-3.26-1,16.94,16.94,0,0,1-2.73-1.35A6.94,6.94,0,0,1,3.11,22.73Z"/></g></g></svg>