<svg xmlns="http://www.w3.org/2000/svg" viewBox="0 0 192 168.56"><defs><style>.cls-1{fill:#a05a2c;}.cls-2{fill:#ffe6d5;stroke:#ac9393;stroke-miterlimit:23.08;stroke-width:1.51px;}.cls-3{fill:red;}</style></defs><g id="Layer_2" data-name="Layer 2"><g id="Layer_1-2" data-name="Layer 1"><g id="g6376"><path id="path6359" class="cls-1" d="M141.85.05a8.28,8.28,0,0,0-3.18,2.09c-3.19,2.8-6.8,10.12-8,16.36A19.5,19.5,0,0,1,126.91,27a99.83,99.83,0,0,0-6.47,10.77l-3.74,7.13L108.31,48l-8.4,3.09-10.44-.4c-11.36-.43-23,.7-37.94,3.71L43.26,56l-3.14-2.41c-5.17-4-11-4-13.79,0-2.06,2.94-.93,8.66,2.48,12.55,1.06,1.21.86,1.92-2.5,8.55L22.65,82V93.89c0,7.81-.32,12.42-.91,13.46-2.28,4-9.86,8.41-16.89,9.73-5,.93-4.85.18-4.85,26.18,0,17.55.24,23.74.91,24.42s4.1.85,12.44.7l11.53-.2.26-2.23a23.48,23.48,0,0,0-.59-6,11.18,11.18,0,0,0-7.86-8.73c-2.87-1-3-1.13-2.84-4.35.13-4.13,3.09-10.11,6.36-12.87s7.14-4.42,15.9-6.74c13.67-3.62,23.62-10.16,27.83-18.28.79-1.52,1.85-2.64,2.36-2.47s10.28,1.87,21.72,3.79,21,3.7,21.3,3.95,2.25,11.83,4.38,25.72,4.33,26,4.9,26.92c1,1.61,1.42,1.68,12.18,1.68h11.14l.86-1.91c2.1-4.6-2.25-12.08-8.82-15.16-2-1-3.21-2-3.2-2.82s1-9.87,2.09-20.35l2.07-19.06,6.64-6.57C151.39,93,153.93,87.12,154.9,72c.71-11.22,2.21-17.11,5.23-20.64S165.2,47,173.28,46c10.87-1.38,16.75-5.39,18.27-12.49.92-4.25.39-8.88-1.21-10.73-1-1.15-2.19-1.24-10.9-.82l-9.77.47L166,19.63c-4.52-3.44-4.44-3.31-6-9.47-1.34-5.48-3.39-8.75-5.48-8.75a11.16,11.16,0,0,0-4.17,1.93c-2.73,1.85-2.89,1.87-3.83.55-2.13-3-3.27-4.14-4.7-3.84Z"/><path id="path6369" class="cls-2" d="M45.15,54.56S64.69,70.2,67.54,80.15s5.68,28.79,5.68,28.79l28.43,3.9s8.89-24.87,22-29.49S145.36,99,145.36,99s5.33-5.33,6.76-7.81,3.55-11.73,3.55-11.73S120.13,61.31,118,50.3s-5.69-5-5.69-5L99.87,49.59s-19.19-.71-24.16,0-30.56,5-30.56,5Z"/><g id="g6367"><path id="rect6361" class="cls-3" d="M76.19,70.91h32.52a2.57,2.57,0,0,1,2.57,2.57v7.41a2.58,2.58,0,0,1-2.58,2.58H76.19a2.57,2.57,0,0,1-2.57-2.57V73.48A2.58,2.58,0,0,1,76.19,70.91Z"/><path id="rect6363" class="cls-3" d="M88.74,58.35h7.41a2.58,2.58,0,0,1,2.58,2.58V93.45A2.57,2.57,0,0,1,96.15,96H88.74a2.58,2.58,0,0,1-2.58-2.58V60.93A2.57,2.57,0,0,1,88.74,58.35Z"/></g></g></g></g></svg>